# xmcd CD database file
#
# Track frame offsets:
#	150
#	13500
#	24550
#	37492
#	46897
#	57975
#	69600
#	81400
#	91155
#	101690
#
# Disc length: 1548 seconds
#
# Revision: 3
# Processed by: cddbd v1.5.2PL0 Copyright (c) Steve Scherf et al.
# Submitted via: jetAudio 7
#
DISCID=83060a0a
DTITLE=Floyd Cramer - Country Kicks
DYEAR=1900
DGENRE=Country
TTITLE0=By The Time I Get To Phoenix
TTITLE1=Welcome To My World
TTITLE2=Ode To Billie Joe
TTITLE3=Gentle On My Mind
TTITLE4=Green, Green Grass Of Home
TTITLE5=The Three Bells
TTITLE6=San Antonio Rose
TTITLE7=Danny Boy
TTITLE8=Tennessee Waltz
TTITLE9=Good Night Irene
EXTD=
EXTT0=
EXTT1=
EXTT2=
EXTT3=
EXTT4=
EXTT5=
EXTT6=
EXTT7=
EXTT8=
EXTT9=
PLAYORDER=
